<svg xmlns="http://www.w3.org/2000/svg" width="18" height="18" viewBox="0 0 18 18">
    <path fill="#FFF" d="M9.75 2.25c1.805 0 3.5.702 4.774 1.977 1.275 1.274 1.978 2.97 1.978 4.773 0 1.804-.703 3.499-1.978 4.773-1.274 1.275-2.97 1.978-4.773 1.978-1.804 0-3.499-.703-4.773-1.978l1.06-1.06c.992.991 2.31 1.538 3.713 1.538 1.402 0 2.72-.547 3.712-1.538.992-.992 1.539-2.31 1.539-3.713 0-1.402-.547-2.721-1.539-3.712-.991-.992-2.31-1.539-3.712-1.539-1.403 0-2.721.547-3.713 1.538l-1.06-1.06C6.252 2.952 7.947 2.249 9.75 2.249zM5.25 6v2.25H12v1.5H5.25V12L1.5 9l3.75-3z"/>
</svg>
