<?xml version="1.0" encoding="UTF-8"?>
<svg width="17px" height="16px" viewBox="0 0 17 16" version="1.1" xmlns="http://www.w3.org/2000/svg" xmlns:xlink="http://www.w3.org/1999/xlink">
    <title>5293746B-DCC6-4852-99FA-C4A59157B7B8</title>
    <g id="Desktop" stroke="none" stroke-width="1" fill="none" fill-rule="evenodd">
        <g id="Desktop_1.1.1_Home" transform="translate(-31.000000, -78.000000)" fill="#E9BE15">
            <g id="Navbar-#9-Copy" transform="translate(0.000000, 62.000000)">
                <g id="Group" transform="translate(32.000000, 14.000000)">
                    <g id="Icon-/-General-/-Home" transform="translate(-0.000000, 2.000000)">
                        <g id="home" transform="translate(1.333333, 2.000000)">
                            <path d="M6.66666667,0 C6.66666667,0 2.54266667,3.56 0.238,5.488 C0.102666667,5.61066667 -4.4408921e-16,5.78933333 -4.4408921e-16,6 C-4.4408921e-16,6.36866667 0.298,6.66666667 0.666666667,6.66666667 L2,6.66666667 L2,11.3333333 C2,11.702 2.298,12 2.66666667,12 L4.66666667,12 C5.03533333,12 5.33333333,11.7013333 5.33333333,11.3333333 L5.33333333,8.66666667 L8,8.66666667 L8,11.3333333 C8,11.7013333 8.298,12 8.66666667,12 L10.6666667,12 C11.0353333,12 11.3333333,11.702 11.3333333,11.3333333 L11.3333333,6.66666667 L12.6666667,6.66666667 C13.0353333,6.66666667 13.3333333,6.36866667 13.3333333,6 C13.3333333,5.78933333 13.2306667,5.61066667 13.078,5.488 C10.7893333,3.56 6.66666667,0 6.66666667,0 Z" id="Path"></path>
                        </g>
                    </g>
                </g>
            </g>
        </g>
    </g>
</svg>