<?xml version="1.0" encoding="UTF-8"?>
<svg width="20px" height="20px" viewBox="0 0 20 20" version="1.1" xmlns="http://www.w3.org/2000/svg" xmlns:xlink="http://www.w3.org/1999/xlink">
    <title>21D72D8F-6DEA-4786-92F7-5F059DFC0931</title>
    <defs>
        <path d="M14.1721686,10 C14.6293673,10 15,9.63011265 15,9.16666667 L15,9.16666667 C15,8.70642938 14.6292114,8.33333333 14.1721686,8.33333333 L0.827831402,8.33333333 C0.370632743,8.33333333 0,8.70322069 0,9.16666667 L0,9.16666667 C0,9.62690396 0.370788574,10 0.827831402,10 L14.1721686,10 Z M14.1721686,5.83333333 C14.6293673,5.83333333 15,5.46344598 15,5 L15,5 C15,4.53976271 14.6292114,4.16666667 14.1721686,4.16666667 L0.827831402,4.16666667 C0.370632743,4.16666667 0,4.53655402 0,5 L0,5 C0,5.46023729 0.370788574,5.83333333 0.827831402,5.83333333 L14.1721686,5.83333333 Z M0,0.833333333 C0,1.29357062 0.370788574,1.66666667 0.827831402,1.66666667 L14.1721686,1.66666667 C14.6293673,1.66666667 15,1.29677931 15,0.833333333 L15,0.833333333 C15,0.373096042 14.6292114,0 14.1721686,0 L0.827831402,0 C0.370632743,0 0,0.369887352 0,0.833333333 L0,0.833333333 Z" id="path-1"></path>
    </defs>
    <g id="Desktop" stroke="none" stroke-width="1" fill="none" fill-rule="evenodd">
        <g id="Desktop_1.1.1_Home" transform="translate(-1380.000000, -20.000000)">
            <g id="Icon-/-General-/-Menu" transform="translate(1380.000000, 20.000000)">
                <g id="icon-menu" transform="translate(2.500000, 5.000000)">
                    <mask id="mask-2" fill="white">
                        <use xlink:href="#path-1"></use>
                    </mask>
                    <use id="Mask" fill="#57626F" fill-rule="nonzero" xlink:href="#path-1"></use>
                </g>
            </g>
        </g>
    </g>
</svg>