<svg xmlns="http://www.w3.org/2000/svg" width="18" height="18" viewBox="0 0 18 18">
    <path fill="#FFF" d="M15.71 6.229c-.008-.568-.113-1.131-.314-1.662-.352-.907-1.068-1.624-1.975-1.975-.524-.197-1.078-.303-1.64-.315-.72-.032-.95-.041-2.781-.041-1.832 0-2.066 0-2.783.041-.56.012-1.114.118-1.638.315-.907.351-1.624 1.068-1.975 1.975-.197.524-.304 1.078-.314 1.638-.033.723-.042.952-.042 2.783s0 2.065.042 2.782c.011.561.117 1.115.314 1.64.352.907 1.068 1.624 1.975 1.975.522.204 1.077.32 1.64.337.721.032.95.042 2.782.042 1.831 0 2.066 0 2.782-.042.56-.011 1.115-.117 1.64-.314.906-.352 1.623-1.069 1.975-1.975.197-.525.303-1.078.314-1.64.032-.722.042-.95.042-2.783-.002-1.831-.002-2.064-.044-2.781zM8.995 12.45c-1.915 0-3.467-1.551-3.467-3.467 0-1.915 1.552-3.467 3.468-3.467 1.913 0 3.467 1.552 3.467 3.467 0 1.916-1.553 3.467-3.467 3.467zm0-5.719c1.244 0 2.253 1.008 2.253 2.252 0 1.244-1.009 2.252-2.252 2.252-1.244 0-2.253-1.008-2.253-2.252 0-1.244 1.009-2.252 2.252-2.252zm3.606-2.152c.446 0 .807.362.807.809 0 .447-.361.808-.807.808-.448 0-.809-.361-.809-.808 0-.447.361-.809.809-.809z"/>
</svg>
