<svg xmlns="http://www.w3.org/2000/svg" width="164" height="68" viewBox="0 0 164 68">
    <path fill="#FFF" d="M113 34c0 16.016-12.984 29-29 29S55 50.016 55 34 67.984 5 84 5s29 12.984 29 29zm-16.564-4.131c.577-3.86-2.361-5.934-6.379-7.317l1.304-5.228-3.183-.793-1.269 5.09c-.836-.209-1.695-.405-2.55-.6l1.279-5.123-3.18-.793-1.305 5.226c-.692-.158-1.372-.314-2.032-.478l.004-.016-4.389-1.096-.846 3.398s2.36.541 2.311.575c1.289.322 1.522 1.174 1.483 1.85l-1.485 5.955c.09.023.204.056.331.106l-.336-.083-2.081 8.342c-.158.391-.558.979-1.459.756.032.046-2.313-.578-2.313-.578l-1.58 3.643 4.142 1.032c.77.193 1.525.395 2.268.585l-1.317 5.287 3.179.793 1.304-5.23c.843.228 1.688.447 2.536.657l-1.3 5.207 3.183.793 1.316-5.277c5.427 1.026 9.507.612 11.225-4.295 1.384-3.951-.07-6.23-2.924-7.717 2.079-.48 3.645-1.847 4.063-4.671zm-7.27 10.194c-.984 3.951-7.638 1.815-9.795 1.28l1.748-7.005c2.157.539 9.074 1.604 8.046 5.725zm.984-10.251c-.898 3.594-6.436 1.768-8.232 1.32l1.584-6.353c1.797.448 7.582 1.283 6.648 5.033z"/>
</svg>
