<svg xmlns="http://www.w3.org/2000/svg" width="164" height="68" viewBox="0 0 164 68">
    <defs>
        <filter id="gx56ao8vma">
            <feColorMatrix in="SourceGraphic" values="0 0 0 0 0.949816 0 0 0 0 0.805449 0 0 0 0 0.365450 0 0 0 1.000000 0"/>
        </filter>
    </defs>
    <g fill="none" fill-rule="evenodd" filter="url(#gx56ao8vma)">
        <path fill="#FFF" fill-rule="nonzero" d="M86.933 29.6l-12.266 18c-.134.267-.534.4-.934.4H70c-.533 0-.8-.533-.533-1.067l3.866-5.466-4-12.134c-.133-.4.134-.8.667-.8h3.6c.533 0 .933.267 1.067.8l2.133 7.334 5.067-7.6c.133-.267.533-.534.933-.534h3.733c.4 0 .667.667.4 1.067zM64.4 42.933h-3.333c-.4 0-.667-.4-.667-.8l.133-1.066S58.667 43.2 55.467 43.2c-1.867 0-3.467-.533-4.667-1.867-1.2-1.466-1.733-3.6-1.333-5.733.666-4.4 4.133-7.467 8.266-7.467 1.734 0 3.6.4 4.4 1.6l.267.4.133-1.066c0-.267.267-.534.667-.534h3.733c.4 0 .667.4.667.8l-2 12.8c-.267.4-.667.8-1.2.8zM61.067 33.2c-.534-.667-1.467-1.067-2.4-1.067-2.134 0-3.734 1.467-4.134 3.6-.133 1.067 0 2 .534 2.667.533.667 1.466 1.067 2.533 1.067 2.133 0 3.733-1.467 4.133-3.6.134-1.067-.133-2-.666-2.667zm51.333-5.067c1.733 0 3.6.4 4.4 1.6l.267.4.133-1.066c0-.267.267-.534.667-.534h3.733c.4 0 .667.4.667.8l-2 12.8c-.134.4-.667.8-1.2.8h-3.334c-.4 0-.666-.4-.666-.8l.133-1.066s-1.867 2.133-5.067 2.133c-1.866 0-3.466-.533-4.666-1.867-1.2-1.466-1.734-3.6-1.334-5.733.667-4.4 4.134-7.467 8.267-7.467zm17.733-6.666c.4 0 .667.4.667.8l-3.2 19.866c-.133.534-.533.934-1.067.934h-3.2c-.4 0-.666-.4-.666-.8l3.2-20.267c0-.267.266-.533.666-.533h3.6zM98.4 21.333c2.533 0 4.533.667 5.6 2 .933 1.2 1.333 2.934.933 5.067-.533 4.933-3.466 7.333-8.533 7.333H94c-.533 0-.933.4-1.067.934L92 42.4c0 .4-.4.667-.8.667h-4c-.4 0-.667-.4-.667-.8l3.067-20c.133-.534.533-.934 1.067-.934H98.4zM44 21.2c2.533 0 4.533.667 5.6 2 .933 1.2 1.333 2.933.933 5.067-.933 5.066-3.866 7.466-8.8 7.466h-2.4c-.533 0-.933.4-1.066.934l-.8 5.333c-.134.533-.534.933-1.067.933h-3.6c-.4 0-.667-.4-.667-.8l3.067-20c.133-.533.533-.933 1.067-.933H44zm69.333 10.933c-2.133 0-3.733 1.467-4.133 3.6-.133 1.067 0 2 .533 2.667.534.667 1.467 1.067 2.534 1.067 2.133 0 3.733-1.467 4.133-3.6.133-1.067 0-2-.667-2.667-.533-.667-1.466-1.067-2.4-1.067zm-72.031-6.4h-.769c-.266 0-.533.267-.666.534l-.8 5.2H40.6c1.897-.009 3.821-.156 4.199-2.8.133-.934 0-1.734-.4-2.134-.627-.753-1.845-.797-3.098-.8zm54.666 0H95.2c-.267 0-.533.267-.667.534l-.8 5.2h1.535c1.897-.009 3.82-.156 4.199-2.8.133-.934 0-1.734-.4-2.134-.628-.753-1.846-.797-3.099-.8z"/>
    </g>
</svg>
