<svg xmlns="http://www.w3.org/2000/svg" width="24" height="24" viewBox="0 0 24 24">
    <path fill="#FFF" d="M19.89 10.105c-.214-.505-.479-.995-.789-1.456l-1.658 1.119c.238.352.441.727.604 1.115.168.398.297.813.383 1.23.088.433.133.878.133 1.324 0 .446-.045.893-.133 1.324-.086.418-.214.831-.384 1.231-.162.386-.365.761-.603 1.112-.234.347-.505.674-.803.973-.297.297-.624.566-.973.802-.352.238-.726.441-1.114.604-.395.167-.809.296-1.229.383-.864.175-1.786.175-2.646 0-.422-.087-.837-.216-1.233-.384-.387-.163-.761-.366-1.113-.604-.347-.233-.673-.503-.971-.8-.299-.3-.569-.628-.803-.973-.237-.351-.44-.726-.605-1.115-.167-.396-.295-.809-.382-1.23-.088-.431-.133-.876-.133-1.323 0-.447.045-.892.134-1.324.086-.42.214-.834.381-1.23.165-.39.369-.765.605-1.114.234-.347.504-.674.802-.972.296-.297.623-.567.972-.802.35-.236.725-.44 1.114-.605.395-.167.81-.296 1.23-.382.107-.022.216-.032.324-.049V10l5-4-5-4v2.938c-.243.029-.486.062-.725.111-.55.113-1.092.281-1.608.5-.509.215-.999.481-1.455.79-.454.306-.88.657-1.267 1.044-.388.388-.739.814-1.045 1.266-.309.457-.574.946-.79 1.455-.219.518-.387 1.059-.499 1.608-.116.563-.174 1.144-.174 1.726 0 .582.059 1.162.174 1.725.113.551.281 1.092.499 1.607.215.509.481.999.79 1.456.305.45.656.876 1.045 1.268.389.388.814.739 1.265 1.043.459.311.949.577 1.456.79.516.218 1.057.387 1.609.5.564.114 1.144.173 1.725.173.581 0 1.161-.059 1.727-.174.551-.114 1.092-.282 1.604-.499.507-.213.998-.479 1.457-.79.453-.306.879-.657 1.268-1.046.388-.389.739-.814 1.045-1.266.312-.462.576-.952.788-1.455.22-.52.389-1.061.5-1.608.115-.563.174-1.144.174-1.725 0-.58-.059-1.161-.174-1.725-.112-.546-.281-1.087-.499-1.607z"/>
</svg>
