<svg xmlns="http://www.w3.org/2000/svg" width="16" height="16" viewBox="0 0 16 16">
    <g fill="none" fill-rule="evenodd">
        <path fill="#BFC1C3" d="M6.5 8.746c.2 0 .392.08.532.221.142.141.222.333.222.533s-.08.392-.221.533L4.564 12.5H6.5c.414 0 .75.336.75.75s-.336.75-.75.75H2.75c-.414 0-.75-.336-.75-.75V9.5c0-.414.336-.75.75-.75l.102.007c.366.05.648.363.648.743v1.928l2.468-2.46c.14-.142.332-.222.532-.222zM13.25 2c.414 0 .75.336.75.75V6.5c0 .414-.336.75-.75.75l-.102-.007c-.366-.05-.648-.363-.648-.743V4.565l-2.467 2.467c-.141.142-.333.222-.533.222s-.392-.08-.533-.221c-.141-.141-.221-.333-.221-.533s.08-.392.221-.532l2.46-2.468H9.5c-.414 0-.75-.336-.75-.75S9.086 2 9.5 2z"/>
    </g>
</svg>
