<svg xmlns="http://www.w3.org/2000/svg" width="10" height="10" viewBox="0 0 10 10">
    <path fill="#F2CD5D" fill-rule="evenodd" d="M.833 7.43v.695c0 .575 1.4 1.042 3.125 1.042 1.726 0 3.125-.467 3.125-1.042V7.43c-.672.474-1.9.695-3.125.695-1.224 0-2.452-.221-3.125-.695zm5.209-4.513c1.725 0 3.125-.467 3.125-1.042S7.767.833 6.042.833c-1.726 0-3.125.467-3.125 1.042s1.4 1.042 3.125 1.042zM.833 5.723v.84c0 .574 1.4 1.041 3.125 1.041 1.726 0 3.125-.467 3.125-1.042v-.84c-.672.554-1.902.84-3.125.84-1.222 0-2.452-.286-3.125-.84zm6.771.179C8.537 5.72 9.167 5.386 9.167 5v-.695c-.378.267-.933.45-1.563.562v1.035zM3.958 3.437C2.233 3.437.833 4.02.833 4.74c0 .719 1.4 1.302 3.125 1.302 1.726 0 3.125-.583 3.125-1.302 0-.72-1.4-1.303-3.125-1.303zm3.57.917c.976-.176 1.639-.521 1.639-.917v-.694c-.578.408-1.571.628-2.616.68.48.233.833.545.977.93z"/>
</svg>
