<svg xmlns="http://www.w3.org/2000/svg" width="18" height="18" viewBox="0 0 18 18">
    <path fill="#FFF" d="M8.391 2.387c.886-.183 1.834-.182 2.72 0 .431.089.858.221 1.267.394.398.169.784.377 1.146.622.359.242.693.518.999.823.306.306.583.642.824 1 .243.36.453.745.622 1.147.171.402.304.829.394 1.266.09.446.137.904.137 1.361 0 .457-.046.915-.137 1.359-.09.44-.223.866-.394 1.269-.17.4-.379.787-.623 1.147-.241.357-.518.693-.823.998-.305.305-.64.582-.998.824-.363.245-.749.454-1.148.623-.408.172-.835.304-1.267.393-.443.09-.901.137-1.36.137-.459 0-.917-.046-1.36-.137-.433-.089-.86-.221-1.267-.394-.398-.168-.784-.377-1.146-.622-.358-.241-.694-.518-1-.824l1.061-1.06c.239.237.5.453.778.64.281.191.582.354.891.485.317.134.648.237.985.306.69.141 1.428.14 2.117 0 .336-.07.667-.172.985-.306.31-.132.61-.295.891-.485.277-.188.54-.403.777-.641.238-.237.453-.499.641-.777.19-.28.352-.58.484-.892.134-.313.236-.644.306-.985C14.964 9.713 15 9.357 15 9c0-.357-.036-.713-.107-1.06-.07-.34-.172-.671-.306-.984-.132-.313-.294-.613-.483-.892s-.404-.54-.642-.777c-.237-.238-.5-.454-.777-.642-.282-.19-.582-.353-.891-.483-.318-.135-.65-.237-.985-.306-.69-.141-1.428-.142-2.117 0-.338.069-.67.171-.985.306-.31.131-.61.294-.893.484-.277.188-.539.403-.777.642-.237.238-.453.499-.64.777-.191.281-.354.582-.485.891-.134.317-.237.648-.306.985-.07.345-.106.701-.106 1.059v.019H6L3.75 12 1.5 9.019H3V9c0-.459.046-.917.137-1.36.089-.433.221-.86.394-1.268.168-.397.377-.783.622-1.146.241-.357.519-.694.824-.999.305-.305.642-.583 1-.824.363-.245.748-.454 1.146-.623.408-.171.834-.304 1.268-.393zM10.5 6v2.25h2.25v1.5H9V6h1.5z"/>
</svg>
