<svg xmlns="http://www.w3.org/2000/svg" width="24" height="24" viewBox="0 0 24 24">
    <path fill="#505D66" fill-rule="evenodd" d="M20.1 4.8h-2.7v-.9c0-.498-.402-.9-.9-.9h-9c-.498 0-.9.402-.9.9v.9H3.9c-.498 0-.9.402-.9.9v2.7c0 3.879 1.62 6.219 4.337 6.31.792 1.359 2.156 2.338 3.763 2.609V19.2H9.3V21h5.4v-1.8h-1.8v-1.881c1.606-.272 2.97-1.251 3.763-2.608C19.38 14.619 21 12.279 21 8.4V5.7c0-.498-.402-.9-.9-.9zM6.6 6.6v6.147C4.994 12.07 4.8 9.569 4.8 8.4V6.6h1.8zm12.6 0v1.94c-.017 1.219-.256 3.556-1.8 4.207V6.6h1.8z"/>
</svg>
