<svg xmlns="http://www.w3.org/2000/svg" width="164" height="68" viewBox="0 0 164 68">
    <g fill="none">
        <path fill="#FFF" d="M6.542 22.81l2.482-1.474v5.557h43.013v-5.507l2.448 1.423c.786.416 1.756.131 2.2-.645.443-.777.203-1.77-.545-2.25L30.53 5 4.888 19.913c-.539.285-.88.846-.888 1.46-.008.616.318 1.186.848 1.485.53.3 1.181.281 1.694-.049zm14.062 6.811v12.336h6.618V29.621h6.617v12.336h6.617V29.621h6.618v12.336h4.715c1.05 0 1.902.862 1.902 1.925v1.423h1.406c1.051 0 1.903.862 1.903 1.925V52H4.06v-4.77c0-1.063.852-1.925 1.903-1.925h1.406v-1.423c0-1.063.852-1.925 1.903-1.925h4.715V29.621h6.617zm11.002-17.608l11.117 6.511h-5.327l-6.452-3.75-6.452 3.75h-5.31l11.1-6.51c.41-.24.914-.24 1.324 0z" transform="translate(52 4)"/>
        <path fill="#000" fill-opacity="0" d="M0 0H60V60H0z" transform="translate(52 4)"/>
    </g>
</svg>
