<svg xmlns="http://www.w3.org/2000/svg" width="18" height="18" viewBox="0 0 18 18">
    <path fill="#FFF" d="M14.725 5.998c.01.131.01.261.01.392 0 3.994-3.04 8.596-8.595 8.596-1.712 0-3.302-.496-4.64-1.357.243.028.477.037.73.037 1.412 0 2.712-.476 3.75-1.29-1.328-.028-2.44-.898-2.825-2.095.187.028.375.046.571.046.27 0 .543-.037.796-.102-1.386-.28-2.423-1.496-2.423-2.965v-.037c.403.224.87.364 1.365.383-.813-.542-1.347-1.468-1.347-2.516 0-.56.15-1.075.411-1.524 1.487 1.833 3.723 3.03 6.23 3.162-.047-.225-.075-.459-.075-.693 0-1.665 1.347-3.02 3.02-3.02.87 0 1.656.364 2.208.953.683-.131 1.337-.384 1.917-.73-.224.702-.702 1.291-1.328 1.665.608-.066 1.197-.234 1.739-.468-.411.599-.925 1.132-1.514 1.563z"/>
</svg>
