<svg xmlns="http://www.w3.org/2000/svg" width="56" height="56" viewBox="0 0 56 56">
    <g fill="none" fill-rule="evenodd">
        <path d="M0 0L45.333 0 45.333 45.333 0 45.333z" transform="translate(5.333 5.333)"/>
        <path fill="#BFC1C3" d="M22.667 28.333c-3.13 0-5.667-2.537-5.667-5.666C17 19.537 19.537 17 22.667 17s5.666 2.537 5.666 5.667-2.537 5.666-5.666 5.666zm15.11-20.777c2.079 0 3.779 1.7 3.779 3.777V34c0 2.078-1.7 3.778-3.778 3.778H7.556c-2.078 0-3.778-1.7-3.778-3.778V11.333c0-2.077 1.7-3.777 3.778-3.777h5.987l2.324-2.55c.717-.775 1.737-1.228 2.795-1.228h8.01c1.057 0 2.077.453 2.776 1.228l2.342 2.55h5.988zM22.668 32.11c5.213 0 9.444-4.231 9.444-9.444 0-5.214-4.231-9.445-9.444-9.445-5.214 0-9.445 4.231-9.445 9.445 0 5.213 4.231 9.444 9.445 9.444z" transform="translate(5.333 5.333)"/>
    </g>
</svg>
