<svg xmlns="http://www.w3.org/2000/svg" width="24" height="24" viewBox="0 0 24 24">
    <g fill="none" fill-rule="evenodd">
        <path d="M0 0L22 0 22 22 0 22z" transform="translate(1 1)"/>
        <path fill="#505D66" d="M19.25 2.026c-.12 0-.238.046-.32.137l-.725.725c-.183.183-.467.183-.65 0l-.725-.725c-.183-.183-.467-.183-.65 0l-.725.725c-.183.183-.467.183-.65 0l-.725-.725c-.183-.183-.467-.183-.65 0l-.725.725c-.183.183-.467.183-.65 0l-.725-.725c-.183-.183-.467-.183-.65 0l-.725.725c-.183.183-.467.183-.65 0l-.734-.734c-.184-.183-.468-.183-.651 0l-.724.734c-.183.183-.468.183-.651 0l-.724-.734c-.183-.183-.468-.183-.651 0l-.724.734c-.183.183-.468.183-.651 0l-.724-.734c-.083-.082-.202-.128-.321-.128v17.957c.12 0 .238-.046.32-.137l.725-.724c.183-.184.468-.184.65 0l.725.724c.183.183.468.183.65 0l.725-.724c.183-.184.468-.184.65 0l.725.724c.183.183.467.183.65 0l.725-.724c.183-.184.467-.184.65 0l.725.724c.183.183.467.183.65 0l.725-.724c.183-.184.467-.184.65 0l.725.724c.183.183.467.183.65 0l.725-.724c.183-.184.467-.184.65 0l.725.724c.183.183.467.183.65 0l.725-.724c.183-.184.467-.184.65 0l.725.724c.092.091.21.137.32.137V2.026h.01zm-3.667 13.557H6.417c-.505 0-.917-.412-.917-.916 0-.505.412-.917.917-.917h9.166c.504 0 .917.412.917.917 0 .504-.413.916-.917.916zm0-3.666H6.417c-.505 0-.917-.413-.917-.917s.412-.917.917-.917h9.166c.504 0 .917.413.917.917s-.413.917-.917.917zm0-3.667H6.417c-.505 0-.917-.412-.917-.917 0-.504.412-.916.917-.916h9.166c.504 0 .917.412.917.916 0 .505-.413.917-.917.917z" transform="translate(1 1)"/>
    </g>
</svg>
