<svg xmlns="http://www.w3.org/2000/svg" width="17" height="16" viewBox="0 0 17 16">
    <g fill="none" fill-rule="evenodd">
        <path fill="#505D66" d="M8 14.667c3.682 0 6.667-2.985 6.667-6.667S11.682 1.333 8 1.333 1.333 4.318 1.333 8c0 1.768.703 3.464 1.953 4.714 1.25 1.25 2.946 1.953 4.714 1.953zM5.54 6.76l2-1.907c.029-.028.063-.05.1-.066.031-.029.067-.051.107-.067.161-.071.345-.071.506 0 .082.032.157.08.22.14l2 2c.262.261.262.685 0 .947-.261.261-.685.261-.946 0l-.86-.867v3.727c0 .368-.299.666-.667.666-.368 0-.667-.298-.667-.666V6.893l-.873.834c-.267.254-.69.243-.943-.024-.254-.267-.244-.689.023-.943z" transform="matrix(1 0 0 -1 .5 16)"/>
    </g>
</svg>
