<svg xmlns="http://www.w3.org/2000/svg" width="16" height="16" viewBox="0 0 16 16">
    <g fill="none">
        <path fill="#FFF" d="M8 1.111C4.08 1.111.889 3.902.889 7.333c0 3.431 3.191 6.223 7.111 6.223.733-.001 1.463-.103 2.169-.303l2.458 1.565c.136.087.31.094.452.016.143-.078.232-.227.232-.39v-2.99c1.124-1.078 1.765-2.564 1.778-4.12C15.111 3.901 11.92 1.11 8 1.11zm3.556 6.222c0 .246-.2.445-.445.445H4.89c-.246 0-.445-.2-.445-.445s.2-.444.445-.444h6.222c.246 0 .445.199.445.444zM10.11 9.556c0 .245-.199.444-.444.444H6.333c-.245 0-.444-.199-.444-.444 0-.246.199-.445.444-.445h3.334c.245 0 .444.2.444.445zM4.57 5.11c0-.245.199-.444.444-.444h5.974c.245 0 .444.199.444.444 0 .246-.199.445-.444.445H5.013c-.245 0-.444-.2-.444-.445z"/>
        <path fill="#000" fill-opacity="0" d="M0 0H16V16H0z"/>
    </g>
</svg>
