<svg xmlns="http://www.w3.org/2000/svg" width="164" height="68" viewBox="0 0 164 68">
    <g fill="#FFF">
        <path d="M54.45 14h-39.9C9.828 14 6 17.838 6 22.571V45.43C6 50.162 9.828 54 14.55 54h39.9c4.722 0 8.55-3.838 8.55-8.571V22.57C63 17.838 59.172 14 54.45 14zm-22.8 28.571h-11.4c-1.574 0-2.85-1.279-2.85-2.857 0-1.578 1.276-2.857 2.85-2.857h11.4c1.574 0 2.85 1.28 2.85 2.857 0 1.578-1.276 2.857-2.85 2.857zm17.1 0h-5.7c-1.574 0-2.85-1.279-2.85-2.857 0-1.578 1.276-2.857 2.85-2.857h5.7c1.574 0 2.85 1.28 2.85 2.857 0 1.578-1.276 2.857-2.85 2.857zM57.3 25.43H11.7V22.57c0-1.578 1.276-2.857 2.85-2.857h39.9c1.574 0 2.85 1.28 2.85 2.857v2.858z" transform="translate(48)"/>
    </g>
</svg>
