<svg xmlns="http://www.w3.org/2000/svg" width="16" height="16" viewBox="0 0 16 16">
    <g fill="none">
        <path fill="#57626F" d="M6 8.667c.736 0 1.333.597 1.333 1.333v2.667C7.333 13.403 6.736 14 6 14H3.333C2.597 14 2 13.403 2 12.667V10c0-.736.597-1.333 1.333-1.333zm6.667 0C13.403 8.667 14 9.264 14 10v2.667c0 .736-.597 1.333-1.333 1.333H10c-.736 0-1.333-.597-1.333-1.333V10c0-.736.597-1.333 1.333-1.333zm0-6.667C13.403 2 14 2.597 14 3.333V6c0 .736-.597 1.333-1.333 1.333H10c-.736 0-1.333-.597-1.333-1.333V3.333C8.667 2.597 9.264 2 10 2zM6 2c.736 0 1.333.597 1.333 1.333V6c0 .736-.597 1.333-1.333 1.333H3.333C2.597 7.333 2 6.736 2 6V3.333C2 2.597 2.597 2 3.333 2z"/>
    </g>
</svg>
