<?xml version="1.0" encoding="UTF-8"?>
<svg width="20px" height="18px" viewBox="0 0 20 18" version="1.1" xmlns="http://www.w3.org/2000/svg" xmlns:xlink="http://www.w3.org/1999/xlink">
    <title>1C11F488-07B4-4FC1-9D7C-35E2AE6A769E</title>
    <g id="Desktop" stroke="none" stroke-width="1" fill="none" fill-rule="evenodd">
        <g id="Desktop_1.1.1_Home" transform="translate(-1247.000000, -22.000000)">
            <g id="Group-3" transform="translate(1241.550432, 12.000000)">
                <g id="Logo" transform="translate(15.500000, 19.000000) rotate(-360.000000) translate(-15.500000, -19.000000) translate(0.000000, 4.000000)">
                    <g id="person" transform="translate(6.121037, 6.000000)">
                        <rect id="Rectangle" fill="#FFFFFF" fill-rule="nonzero" opacity="0" x="0" y="0" width="18.3631124" height="18"></rect>
                        <path d="M9.1815562,9.75000008 C12.1395424,9.75000008 14.537464,12.1005051 14.537464,15 C14.537464,15.4142136 14.1949037,15.7500001 13.7723343,15.7500001 L13.7723343,15.7500001 L4.5907781,15.7500001 C4.16820864,15.7500001 3.82564841,15.4142136 3.82564841,15 C3.82564841,12.1005051 6.22357004,9.75000008 9.1815562,9.75000008 Z M9.1815562,2.25 C10.871834,2.25 12.2420749,3.59314575 12.2420749,5.25 C12.2420749,6.90685425 10.871834,8.25 9.1815562,8.25 C7.49127837,8.25 6.12103746,6.90685425 6.12103746,5.25 C6.12103746,3.59314575 7.49127837,2.25 9.1815562,2.25 Z" id="Path-2" fill="#505D66"></path>
                    </g>
                </g>
            </g>
        </g>
    </g>
</svg>