<svg xmlns="http://www.w3.org/2000/svg" width="16" height="16" viewBox="0 0 16 16">
    <path fill="#BFC1C3" fill-rule="evenodd" d="M9.314 7.9l3.535-3.536c.26-.251.364-.623.273-.973-.092-.35-.365-.622-.714-.714-.35-.091-.722.013-.973.273L7.899 6.485 4.364 2.95c-.251-.26-.623-.364-.973-.273-.35.092-.622.365-.714.714-.091.35.013.722.273.973l3.535 3.535-3.535 3.536c-.26.251-.364.623-.273.973.092.35.365.622.714.714.35.091.722-.013.973-.273l3.535-3.535 3.536 3.535c.251.26.623.364.973.273.35-.092.622-.365.714-.714.091-.35-.013-.722-.273-.973L9.314 7.899V7.9z"/>
</svg>
