<svg xmlns="http://www.w3.org/2000/svg" width="24" height="24" viewBox="0 0 24 24">
    <path fill="#FFF" d="M11 16V5c0-.552.448-1 1-1s1 .448 1 1v11h1c.552 0 1 .448 1 1s-.448 1-1 1h-1v1c0 .552-.448 1-1 1s-1-.448-1-1v-1h-1c-.552 0-1-.448-1-1s.448-1 1-1h1zm7-10V5c0-.552.448-1 1-1s1 .448 1 1v1h1c.552 0 1 .448 1 1s-.448 1-1 1h-1v11c0 .552-.448 1-1 1s-1-.448-1-1V8h-1c-.552 0-1-.448-1-1s.448-1 1-1h1zM6 9h1c.552 0 1 .448 1 1s-.448 1-1 1H6v8c0 .552-.448 1-1 1s-1-.448-1-1v-8H3c-.552 0-1-.448-1-1s.448-1 1-1h1V5c0-.552.448-1 1-1s1 .448 1 1v4z"/>
</svg>
