<svg xmlns="http://www.w3.org/2000/svg" width="14" height="14" viewBox="0 0 14 14">
    <g fill="none" fill-rule="evenodd">
        <path d="M0 0L14 0 14 14 0 14z"/>
        <path fill="#FFF" fill-rule="nonzero" d="M3.889 8.944h5.347c.269 0 .486-.217.486-.486 0-.268-.217-.486-.486-.486H5.347c-1.342 0-2.43-1.088-2.43-2.43 0-1.343 1.088-2.43 2.43-2.43h.972V1.166h1.945V3.11h2.43v1.945H5.347c-.268 0-.486.217-.486.486 0 .268.218.486.486.486h3.89c1.341 0 2.43 1.088 2.43 2.43 0 1.343-1.089 2.43-2.43 2.43h-.973v1.945H6.319V10.89H3.89V8.944z"/>
    </g>
</svg>
