<svg xmlns="http://www.w3.org/2000/svg" width="16" height="16" viewBox="0 0 16 16">
    <defs>
        <filter id="prefix__a" width="124.3%" height="127.6%" x="-12.2%" y="-13.8%" filterUnits="objectBoundingBox">
            <feOffset dy="2" in="SourceAlpha" result="shadowOffsetOuter1"/>
            <feGaussianBlur in="shadowOffsetOuter1" result="shadowBlurOuter1" stdDeviation="8"/>
            <feColorMatrix in="shadowBlurOuter1" result="shadowMatrixOuter1" values="0 0 0 0 0 0 0 0 0 0 0 0 0 0 0 0 0 0 0.2 0"/>
            <feMerge>
                <feMergeNode in="shadowMatrixOuter1"/>
                <feMergeNode in="SourceGraphic"/>
            </feMerge>
        </filter>
    </defs>
    <g fill="#B7BFC7" fill-rule="evenodd" filter="url(#prefix__a)" transform="translate(-76 -65)">
        <path d="M89.65 68.265c-.117-.44-.463-.786-.903-.905-.578-.154-1.48-.338-2.536-.36L90 70.794c-.02-1.053-.198-1.95-.35-2.529zm-11.3 9.47c.117.44.463.786.903.905.578.154 1.48.338 2.536.36L78 75.206c.02 1.053.198 1.95.35 2.529zm-.248-4.072l5.23 5.24c3.206-.47 6.02-2.872 6.569-6.566l-5.233-5.24c-3.206.47-6.02 2.872-6.566 6.566zm7.676-2.99c.075-.075.199-.075.274 0l.273.273c.075.075.075.198 0 .273l-.685.685.685.685c.075.075.075.198 0 .273l-.273.273c-.075.075-.199.075-.274 0l-.684-.684-.547.549.684.685c.075.075.075.198 0 .273l-.273.273c-.075.075-.198.075-.273 0L84 73.547l-.547.547.685.684c.075.075.075.199 0 .274l-.273.273c-.075.075-.199.075-.274 0l-.685-.685-.684.685c-.075.075-.199.075-.274 0l-.273-.273c-.075-.075-.075-.199 0-.274l.685-.684-.685-.683c-.075-.075-.075-.198 0-.273l.273-.273c.075-.075.199-.075.274 0l.684.684.547-.547-.684-.684c-.075-.075-.075-.199 0-.274l.273-.273c.075-.075.198-.075.273 0l.685.685.547-.547-.685-.685c-.075-.075-.075-.198 0-.273l.273-.274c.075-.075.199-.075.274 0l.685.685.684-.69z"/>
    </g>
</svg>
